<svg xmlns="http://www.w3.org/2000/svg" viewBox="0 0 136.76 136.66"><defs><style>.cls-1,.cls-3{fill:#1b2740;}.cls-1{stroke:#1b2740;stroke-width:1.1px;}.cls-1,.cls-2{stroke-miterlimit:10;}.cls-2{fill:none;stroke:#f2dcc9;}.cls-3{font-size:36px;font-family:OdileOrnaments-Regular, Odile Ornaments;}</style></defs><title>Asset 1</title><g id="Layer_2" data-name="Layer 2"><g id="Layer_1-2" data-name="Layer 1"><rect class="cls-1" x="0.55" y="0.55" width="135.55" height="135.55"/><path class="cls-2" d="M68.43,68.32c-5.32-5.84-14.14-15.47-14.14-33.78,0-18.61,10.42-33,13.93-34,4,.92,14.14,17.09,14.14,33.78C82.24,53.05,73,63.34,68.43,68.32Zm0,0c12.63,11.79,24.09,13.72,34,13.93S133,75.48,136.21,68.11c-4-7.47-23.66-13.92-34-13.93-7.86,0-19.63.85-33.78,14.14-13.52,13-14.14,33.79-14.14,33.79.21,16.92,8.84,31.18,14.35,34,5.42-2.64,13.94-19.14,13.94-34A48.49,48.49,0,0,0,68.43,68.32a47.33,47.33,0,0,0-34-13.93C18.51,54.39,2.1,63.92.66,68.54c2.25,5.11,14.85,13.14,33.78,13.93C51.54,82.25,61.44,75.07,68.43,68.32Z"/><path class="cls-2" d="M68.43,68.32a15.38,15.38,0,0,1-4.71-11.25c0-6.21,3.47-11,4.64-11.33,1.32.3,4.71,5.69,4.71,11.25A15.83,15.83,0,0,1,68.43,68.32Zm0,0A15.82,15.82,0,0,0,79.76,73C83.06,73,90,70.71,91,68.25c-1.34-2.49-7.88-4.64-11.33-4.64-2.62,0-6.54.28-11.26,4.71-4.51,4.32-4.71,11.26-4.71,11.26.07,5.64,3,10.4,4.78,11.33,1.81-.88,4.65-6.38,4.65-11.33a16.17,16.17,0,0,0-4.72-11.26A15.76,15.76,0,0,0,57.1,63.68c-5.31,0-10.77,3.18-11.26,4.72.75,1.7,4.95,4.38,11.26,4.64A15.53,15.53,0,0,0,68.43,68.32Z"/><text class="cls-3" transform="translate(52.54 84.62)">S</text></g></g></svg>